<svg width="16" height="16" viewBox="0 0 16 16" fill="none" xmlns="http://www.w3.org/2000/svg">
<path d="M2 1.33337V5.33337H6" stroke="#334155" stroke-linecap="round" stroke-linejoin="round"/>
<path d="M14 8.00003C13.9989 6.84224 13.6629 5.70948 13.0325 4.73839C12.4021 3.76729 11.5041 2.99934 10.447 2.52715C9.38987 2.05497 8.2187 1.89873 7.07476 2.07727C5.93082 2.2558 4.86297 2.7615 4 3.53336L2 5.33336" stroke="#334155" stroke-linecap="round" stroke-linejoin="round"/>
<path d="M14 14.6666V10.6666H10" stroke="#334155" stroke-linecap="round" stroke-linejoin="round"/>
<path d="M2 8C2.00105 9.15779 2.33707 10.2905 2.9675 11.2616C3.59794 12.2327 4.49588 13.0007 5.55301 13.4729C6.61013 13.9451 7.7813 14.1013 8.92524 13.9228C10.0692 13.7442 11.137 13.2385 12 12.4667L14 10.6667" stroke="#334155" stroke-linecap="round" stroke-linejoin="round"/>
</svg>
